<svg xmlns="http://www.w3.org/2000/svg" xmlns:xlink="http://www.w3.org/1999/xlink" width="500" zoomAndPan="magnify" viewBox="0 0 375 374.999991" height="500" preserveAspectRatio="xMidYMid meet" version="1.0"><defs><g/><clipPath id="b930f4a34c"><rect x="0" width="367" y="0" height="268"/></clipPath></defs><g transform="matrix(1, 0, 0, 1, 8, 53)"><g clip-path="url(#b930f4a34c)"><g fill="#71a9bc" fill-opacity="1"><g transform="translate(0.189721, 200.348499)"><g><path d="M 10.90625 0 L 10.90625 -29.609375 L 136.046875 -126.25 L 10.90625 -126.25 L 10.90625 -155.859375 L 186.8125 -155.859375 L 186.8125 -126.25 L 61.671875 -29.609375 L 186.8125 -29.609375 L 186.8125 0 Z M 10.90625 0 "/></g></g></g><g fill="#71a9bc" fill-opacity="1"><g transform="translate(162.729807, 200.348499)"><g><path d="M 10.90625 0 L 10.90625 -29.609375 L 136.046875 -126.25 L 10.90625 -126.25 L 10.90625 -155.859375 L 186.8125 -155.859375 L 186.8125 -126.25 L 61.671875 -29.609375 L 186.8125 -29.609375 L 186.8125 0 Z M 10.90625 0 "/></g></g></g><g fill="#71a9bc" fill-opacity="1"><g transform="translate(325.274425, 200.348499)"><g/></g></g></g></g></svg>