<svg xmlns="http://www.w3.org/2000/svg" xmlns:xlink="http://www.w3.org/1999/xlink" width="354" zoomAndPan="magnify" viewBox="20 112 354 130" height="130" preserveAspectRatio="xMidYMid meet" version="1.0"><defs><g/><clipPath id="9dcd11e91e"><path d="M 3 96 L 329 96 L 329 123.601562 L 3 123.601562 Z M 3 96 " clip-rule="nonzero"/></clipPath><clipPath id="195e9c8abe"><rect x="0" width="326" y="0" height="28"/></clipPath><clipPath id="ada8d8132b"><rect x="0" width="350" y="0" height="124"/></clipPath></defs><g transform="matrix(1, 0, 0, 1, 22, 114)"><g clip-path="url(#ada8d8132b)"><g fill="#000000" fill-opacity="1"><g transform="translate(0.368702, 86.251334)"><g><path d="M 4.96875 0 L 4.96875 -71.046875 L 60.796875 -71.046875 C 66.210938 -71.046875 70.945312 -70.015625 75 -67.953125 C 79.0625 -65.890625 82.242188 -62.925781 84.546875 -59.0625 C 86.847656 -55.207031 88 -50.644531 88 -45.375 C 88 -39.414062 86.539062 -34.390625 83.625 -30.296875 C 80.71875 -26.203125 76.765625 -23.273438 71.765625 -21.515625 L 85.0625 0 L 66.171875 0 L 54.203125 -19.59375 L 21.015625 -19.59375 L 21.015625 0 Z M 21.015625 -33.09375 L 55.71875 -33.09375 C 57.28125 -33.09375 58.988281 -33.160156 60.84375 -33.296875 C 62.707031 -33.429688 64.484375 -33.867188 66.171875 -34.609375 C 67.867188 -35.359375 69.257812 -36.578125 70.34375 -38.265625 C 71.425781 -39.953125 71.96875 -42.320312 71.96875 -45.375 C 71.96875 -48.414062 71.425781 -50.765625 70.34375 -52.421875 C 69.257812 -54.078125 67.867188 -55.273438 66.171875 -56.015625 C 64.484375 -56.765625 62.707031 -57.207031 60.84375 -57.34375 C 58.988281 -57.476562 57.28125 -57.546875 55.71875 -57.546875 L 21.015625 -57.546875 Z M 21.015625 -33.09375 "/></g></g></g><g fill="#000000" fill-opacity="1"><g transform="translate(76.282371, 86.251334)"><g><path d="M 3.953125 0 L 42.625 -71.046875 L 63.34375 -71.046875 L 102 0 L 84.25 0 L 75.625 -15.734375 L 30.34375 -15.734375 L 21.71875 0 Z M 36.546875 -28.109375 L 69.421875 -28.109375 L 52.984375 -57.953125 Z M 36.546875 -28.109375 "/></g></g></g><g fill="#000000" fill-opacity="1"><g transform="translate(166.202124, 86.251334)"><g><path d="M 4.96875 0 L 4.96875 -13.5 L 62.015625 -57.546875 L 4.96875 -57.546875 L 4.96875 -71.046875 L 85.15625 -71.046875 L 85.15625 -57.546875 L 28.109375 -13.5 L 85.15625 -13.5 L 85.15625 0 Z M 4.96875 0 "/></g></g></g><g fill="#000000" fill-opacity="1"><g transform="translate(240.288915, 86.251334)"><g><path d="M 4.96875 0 L 4.96875 -13.5 L 62.015625 -57.546875 L 4.96875 -57.546875 L 4.96875 -71.046875 L 85.15625 -71.046875 L 85.15625 -57.546875 L 28.109375 -13.5 L 85.15625 -13.5 L 85.15625 0 Z M 4.96875 0 "/></g></g></g><g fill="#000000" fill-opacity="1"><g transform="translate(314.392039, 86.251334)"><g/></g></g><g clip-path="url(#9dcd11e91e)"><g transform="matrix(1, 0, 0, 1, 3, 96)"><g clip-path="url(#195e9c8abe)"><g fill="#000000" fill-opacity="1"><g transform="translate(1.181253, 20.518297)"><g><path d="M 1.109375 0 L 1.109375 -15.765625 L 13.5 -15.765625 C 14.695312 -15.765625 15.742188 -15.535156 16.640625 -15.078125 C 17.546875 -14.617188 18.253906 -13.960938 18.765625 -13.109375 C 19.273438 -12.253906 19.53125 -11.242188 19.53125 -10.078125 C 19.53125 -8.753906 19.207031 -7.632812 18.5625 -6.71875 C 17.914062 -5.8125 17.035156 -5.164062 15.921875 -4.78125 L 18.875 0 L 14.6875 0 L 12.03125 -4.34375 L 4.65625 -4.34375 L 4.65625 0 Z M 4.65625 -7.34375 L 12.375 -7.34375 C 12.71875 -7.34375 13.09375 -7.359375 13.5 -7.390625 C 13.914062 -7.421875 14.3125 -7.519531 14.6875 -7.6875 C 15.0625 -7.851562 15.367188 -8.125 15.609375 -8.5 C 15.847656 -8.875 15.96875 -9.398438 15.96875 -10.078125 C 15.96875 -10.742188 15.847656 -11.257812 15.609375 -11.625 C 15.367188 -12 15.0625 -12.269531 14.6875 -12.4375 C 14.3125 -12.601562 13.914062 -12.703125 13.5 -12.734375 C 13.09375 -12.765625 12.71875 -12.78125 12.375 -12.78125 L 4.65625 -12.78125 Z M 4.65625 -7.34375 "/></g></g></g><g fill="#000000" fill-opacity="1"><g transform="translate(21.010659, 20.518297)"><g><path d="M 1.109375 0 L 1.109375 -15.765625 L 17.78125 -15.765625 L 17.78125 -12.90625 L 4.65625 -12.90625 L 4.65625 -9.234375 L 17.78125 -9.234375 L 17.78125 -6.53125 L 4.65625 -6.53125 L 4.65625 -2.859375 L 17.78125 -2.859375 L 17.78125 0 Z M 1.109375 0 "/></g></g></g><g fill="#000000" fill-opacity="1"><g transform="translate(39.082438, 20.518297)"><g><path d="M 0.875 0 L 9.46875 -15.765625 L 14.0625 -15.765625 L 22.640625 0 L 18.703125 0 L 16.78125 -3.5 L 6.734375 -3.5 L 4.828125 0 Z M 8.109375 -6.234375 L 15.40625 -6.234375 L 11.765625 -12.859375 Z M 8.109375 -6.234375 "/></g></g></g><g fill="#000000" fill-opacity="1"><g transform="translate(62.021494, 20.518297)"><g><path d="M 1.109375 0 L 1.109375 -15.765625 L 4.65625 -15.765625 L 4.65625 -3 L 17.328125 -3 L 17.328125 0 Z M 1.109375 0 "/></g></g></g><g fill="#000000" fill-opacity="1"><g transform="translate(79.642594, 20.518297)"><g/></g></g><g fill="#000000" fill-opacity="1"><g transform="translate(89.714914, 20.518297)"><g><path d="M 1.109375 0 L 1.109375 -15.765625 L 17.78125 -15.765625 L 17.78125 -12.90625 L 4.65625 -12.90625 L 4.65625 -9.234375 L 17.78125 -9.234375 L 17.78125 -6.53125 L 4.65625 -6.53125 L 4.65625 -2.859375 L 17.78125 -2.859375 L 17.78125 0 Z M 1.109375 0 "/></g></g></g><g fill="#000000" fill-opacity="1"><g transform="translate(107.786693, 20.518297)"><g><path d="M 11.28125 0.21875 C 9.132812 0.21875 7.28125 0.0664062 5.71875 -0.234375 C 4.15625 -0.546875 2.957031 -1.109375 2.125 -1.921875 C 1.289062 -2.742188 0.875 -3.90625 0.875 -5.40625 L 4.4375 -5.40625 C 4.4375 -4.78125 4.640625 -4.257812 5.046875 -3.84375 C 5.460938 -3.425781 6.1875 -3.117188 7.21875 -2.921875 C 8.25 -2.734375 9.679688 -2.640625 11.515625 -2.640625 C 13.003906 -2.640625 14.175781 -2.707031 15.03125 -2.84375 C 15.894531 -2.976562 16.515625 -3.1875 16.890625 -3.46875 C 17.273438 -3.75 17.46875 -4.125 17.46875 -4.59375 C 17.46875 -4.96875 17.382812 -5.269531 17.21875 -5.5 C 17.050781 -5.738281 16.734375 -5.925781 16.265625 -6.0625 C 15.796875 -6.195312 15.132812 -6.304688 14.28125 -6.390625 C 13.4375 -6.472656 12.328125 -6.550781 10.953125 -6.625 C 8.703125 -6.738281 6.875 -6.953125 5.46875 -7.265625 C 4.070312 -7.585938 3.050781 -8.085938 2.40625 -8.765625 C 1.757812 -9.441406 1.4375 -10.363281 1.4375 -11.53125 C 1.4375 -12.6875 1.816406 -13.585938 2.578125 -14.234375 C 3.335938 -14.878906 4.414062 -15.332031 5.8125 -15.59375 C 7.207031 -15.863281 8.875 -16 10.8125 -16 C 12.78125 -16 14.476562 -15.820312 15.90625 -15.46875 C 17.332031 -15.113281 18.425781 -14.539062 19.1875 -13.75 C 19.957031 -12.96875 20.34375 -11.929688 20.34375 -10.640625 L 16.78125 -10.640625 C 16.78125 -11.296875 16.5625 -11.800781 16.125 -12.15625 C 15.695312 -12.519531 15.007812 -12.773438 14.0625 -12.921875 C 13.125 -13.066406 11.890625 -13.140625 10.359375 -13.140625 C 8.929688 -13.140625 7.828125 -13.082031 7.046875 -12.96875 C 6.265625 -12.851562 5.726562 -12.664062 5.4375 -12.40625 C 5.144531 -12.144531 5 -11.796875 5 -11.359375 C 5 -11.015625 5.082031 -10.726562 5.25 -10.5 C 5.414062 -10.269531 5.710938 -10.085938 6.140625 -9.953125 C 6.566406 -9.816406 7.171875 -9.703125 7.953125 -9.609375 C 8.734375 -9.523438 9.734375 -9.445312 10.953125 -9.375 C 12.515625 -9.28125 13.914062 -9.171875 15.15625 -9.046875 C 16.394531 -8.921875 17.445312 -8.707031 18.3125 -8.40625 C 19.1875 -8.101562 19.851562 -7.660156 20.3125 -7.078125 C 20.78125 -6.503906 21.015625 -5.722656 21.015625 -4.734375 C 21.015625 -3.679688 20.773438 -2.828125 20.296875 -2.171875 C 19.816406 -1.515625 19.140625 -1.015625 18.265625 -0.671875 C 17.398438 -0.328125 16.375 -0.09375 15.1875 0.03125 C 14 0.15625 12.695312 0.21875 11.28125 0.21875 Z M 11.28125 0.21875 "/></g></g></g><g fill="#000000" fill-opacity="1"><g transform="translate(129.103315, 20.518297)"><g><path d="M 8.78125 0 L 8.78125 -12.78125 L 0.875 -12.78125 L 0.875 -15.765625 L 20.25 -15.765625 L 20.25 -12.78125 L 12.34375 -12.78125 L 12.34375 0 Z M 8.78125 0 "/></g></g></g><g fill="#000000" fill-opacity="1"><g transform="translate(149.6538, 20.518297)"><g><path d="M 0.875 0 L 9.46875 -15.765625 L 14.0625 -15.765625 L 22.640625 0 L 18.703125 0 L 16.78125 -3.5 L 6.734375 -3.5 L 4.828125 0 Z M 8.109375 -6.234375 L 15.40625 -6.234375 L 11.765625 -12.859375 Z M 8.109375 -6.234375 "/></g></g></g><g fill="#000000" fill-opacity="1"><g transform="translate(172.592856, 20.518297)"><g><path d="M 8.78125 0 L 8.78125 -12.78125 L 0.875 -12.78125 L 0.875 -15.765625 L 20.25 -15.765625 L 20.25 -12.78125 L 12.34375 -12.78125 L 12.34375 0 Z M 8.78125 0 "/></g></g></g><g fill="#000000" fill-opacity="1"><g transform="translate(193.14334, 20.518297)"><g><path d="M 1.109375 0 L 1.109375 -15.765625 L 17.78125 -15.765625 L 17.78125 -12.90625 L 4.65625 -12.90625 L 4.65625 -9.234375 L 17.78125 -9.234375 L 17.78125 -6.53125 L 4.65625 -6.53125 L 4.65625 -2.859375 L 17.78125 -2.859375 L 17.78125 0 Z M 1.109375 0 "/></g></g></g><g fill="#000000" fill-opacity="1"><g transform="translate(211.215131, 20.518297)"><g/></g></g><g fill="#000000" fill-opacity="1"><g transform="translate(221.287439, 20.518297)"><g><path d="M 10.28125 0.21875 C 8.34375 0.21875 6.671875 -0.0976562 5.265625 -0.734375 C 3.859375 -1.367188 2.773438 -2.289062 2.015625 -3.5 C 1.253906 -4.707031 0.875 -6.171875 0.875 -7.890625 C 0.875 -10.472656 1.738281 -12.46875 3.46875 -13.875 C 5.207031 -15.289062 7.703125 -16 10.953125 -16 C 13.054688 -16 14.804688 -15.726562 16.203125 -15.1875 C 17.609375 -14.65625 18.679688 -13.914062 19.421875 -12.96875 C 20.160156 -12.03125 20.566406 -10.921875 20.640625 -9.640625 L 17.03125 -9.640625 C 16.96875 -9.972656 16.835938 -10.328125 16.640625 -10.703125 C 16.453125 -11.085938 16.140625 -11.453125 15.703125 -11.796875 C 15.265625 -12.148438 14.660156 -12.4375 13.890625 -12.65625 C 13.128906 -12.882812 12.148438 -13 10.953125 -13 C 9.804688 -13 8.84375 -12.878906 8.0625 -12.640625 C 7.28125 -12.410156 6.648438 -12.101562 6.171875 -11.71875 C 5.691406 -11.34375 5.328125 -10.925781 5.078125 -10.46875 C 4.828125 -10.007812 4.65625 -9.550781 4.5625 -9.09375 C 4.476562 -8.632812 4.4375 -8.21875 4.4375 -7.84375 C 4.4375 -7.445312 4.476562 -7.015625 4.5625 -6.546875 C 4.65625 -6.085938 4.828125 -5.625 5.078125 -5.15625 C 5.328125 -4.695312 5.691406 -4.273438 6.171875 -3.890625 C 6.648438 -3.503906 7.28125 -3.191406 8.0625 -2.953125 C 8.84375 -2.710938 9.804688 -2.59375 10.953125 -2.59375 C 12.046875 -2.59375 12.972656 -2.703125 13.734375 -2.921875 C 14.503906 -3.148438 15.128906 -3.441406 15.609375 -3.796875 C 16.085938 -4.148438 16.441406 -4.515625 16.671875 -4.890625 C 16.898438 -5.273438 17.019531 -5.617188 17.03125 -5.921875 L 10.6875 -5.921875 L 10.6875 -8.421875 L 20.640625 -8.421875 L 20.640625 0 L 17.75 0 L 17.640625 -2.546875 C 16.878906 -1.722656 15.882812 -1.054688 14.65625 -0.546875 C 13.425781 -0.0351562 11.96875 0.21875 10.28125 0.21875 Z M 10.28125 0.21875 "/></g></g></g><g fill="#000000" fill-opacity="1"><g transform="translate(242.22101, 20.518297)"><g><path d="M 1.109375 0 L 1.109375 -15.765625 L 13.5 -15.765625 C 14.695312 -15.765625 15.742188 -15.535156 16.640625 -15.078125 C 17.546875 -14.617188 18.253906 -13.960938 18.765625 -13.109375 C 19.273438 -12.253906 19.53125 -11.242188 19.53125 -10.078125 C 19.53125 -8.753906 19.207031 -7.632812 18.5625 -6.71875 C 17.914062 -5.8125 17.035156 -5.164062 15.921875 -4.78125 L 18.875 0 L 14.6875 0 L 12.03125 -4.34375 L 4.65625 -4.34375 L 4.65625 0 Z M 4.65625 -7.34375 L 12.375 -7.34375 C 12.71875 -7.34375 13.09375 -7.359375 13.5 -7.390625 C 13.914062 -7.421875 14.3125 -7.519531 14.6875 -7.6875 C 15.0625 -7.851562 15.367188 -8.125 15.609375 -8.5 C 15.847656 -8.875 15.96875 -9.398438 15.96875 -10.078125 C 15.96875 -10.742188 15.847656 -11.257812 15.609375 -11.625 C 15.367188 -12 15.0625 -12.269531 14.6875 -12.4375 C 14.3125 -12.601562 13.914062 -12.703125 13.5 -12.734375 C 13.09375 -12.765625 12.71875 -12.78125 12.375 -12.78125 L 4.65625 -12.78125 Z M 4.65625 -7.34375 "/></g></g></g><g fill="#000000" fill-opacity="1"><g transform="translate(262.050416, 20.518297)"><g><path d="M 10.796875 0.21875 C 8.484375 0.21875 6.597656 -0.0976562 5.140625 -0.734375 C 3.679688 -1.367188 2.601562 -2.296875 1.90625 -3.515625 C 1.21875 -4.734375 0.875 -6.195312 0.875 -7.90625 C 0.875 -9.625 1.21875 -11.085938 1.90625 -12.296875 C 2.601562 -13.503906 3.679688 -14.421875 5.140625 -15.046875 C 6.597656 -15.679688 8.484375 -16 10.796875 -16 C 13.109375 -16 14.992188 -15.675781 16.453125 -15.03125 C 17.910156 -14.394531 18.984375 -13.476562 19.671875 -12.28125 C 20.359375 -11.082031 20.703125 -9.625 20.703125 -7.90625 C 20.703125 -6.195312 20.359375 -4.738281 19.671875 -3.53125 C 18.984375 -2.320312 17.910156 -1.394531 16.453125 -0.75 C 14.992188 -0.101562 13.109375 0.21875 10.796875 0.21875 Z M 10.796875 -2.765625 C 13.015625 -2.765625 14.625 -3.164062 15.625 -3.96875 C 16.632812 -4.78125 17.140625 -6.09375 17.140625 -7.90625 C 17.140625 -9.707031 16.640625 -11.003906 15.640625 -11.796875 C 14.648438 -12.597656 13.035156 -13 10.796875 -13 C 8.566406 -13 6.945312 -12.601562 5.9375 -11.8125 C 4.9375 -11.03125 4.4375 -9.726562 4.4375 -7.90625 C 4.4375 -6.09375 4.9375 -4.78125 5.9375 -3.96875 C 6.945312 -3.164062 8.566406 -2.765625 10.796875 -2.765625 Z M 10.796875 -2.765625 "/></g></g></g><g fill="#000000" fill-opacity="1"><g transform="translate(283.051543, 20.518297)"><g><path d="M 11.015625 0.21875 C 7.546875 0.21875 5.023438 -0.445312 3.453125 -1.78125 C 1.890625 -3.113281 1.109375 -5.15625 1.109375 -7.90625 L 1.109375 -15.765625 L 4.65625 -15.765625 L 4.65625 -7.90625 C 4.65625 -7.320312 4.71875 -6.726562 4.84375 -6.125 C 4.976562 -5.53125 5.253906 -4.972656 5.671875 -4.453125 C 6.097656 -3.941406 6.734375 -3.53125 7.578125 -3.21875 C 8.429688 -2.914062 9.578125 -2.765625 11.015625 -2.765625 C 12.460938 -2.765625 13.609375 -2.921875 14.453125 -3.234375 C 15.304688 -3.554688 15.941406 -3.96875 16.359375 -4.46875 C 16.773438 -4.976562 17.046875 -5.53125 17.171875 -6.125 C 17.304688 -6.726562 17.375 -7.320312 17.375 -7.90625 L 17.375 -15.765625 L 20.9375 -15.765625 L 20.9375 -7.90625 C 20.9375 -5.175781 20.144531 -3.140625 18.5625 -1.796875 C 16.988281 -0.453125 14.472656 0.21875 11.015625 0.21875 Z M 11.015625 0.21875 "/></g></g></g><g fill="#000000" fill-opacity="1"><g transform="translate(304.503371, 20.518297)"><g><path d="M 1.109375 0 L 1.109375 -15.765625 L 13.5 -15.765625 C 14.695312 -15.765625 15.742188 -15.535156 16.640625 -15.078125 C 17.546875 -14.617188 18.253906 -13.960938 18.765625 -13.109375 C 19.273438 -12.253906 19.53125 -11.242188 19.53125 -10.078125 C 19.53125 -8.898438 19.273438 -7.882812 18.765625 -7.03125 C 18.253906 -6.175781 17.546875 -5.515625 16.640625 -5.046875 C 15.742188 -4.578125 14.695312 -4.34375 13.5 -4.34375 L 4.65625 -4.34375 L 4.65625 0 Z M 4.65625 -7.34375 L 12.375 -7.34375 C 12.71875 -7.34375 13.09375 -7.359375 13.5 -7.390625 C 13.914062 -7.421875 14.3125 -7.519531 14.6875 -7.6875 C 15.0625 -7.851562 15.367188 -8.125 15.609375 -8.5 C 15.847656 -8.875 15.96875 -9.398438 15.96875 -10.078125 C 15.96875 -10.742188 15.847656 -11.257812 15.609375 -11.625 C 15.367188 -12 15.0625 -12.269531 14.6875 -12.4375 C 14.3125 -12.601562 13.914062 -12.703125 13.5 -12.734375 C 13.09375 -12.765625 12.71875 -12.78125 12.375 -12.78125 L 4.65625 -12.78125 Z M 4.65625 -7.34375 "/></g></g></g></g></g></g></g></g></svg>