<svg width="2500" height="1152" viewBox="0 0 2500 1152" fill="none" xmlns="http://www.w3.org/2000/svg">
<path d="M0 0V1151.35H2500V0H0ZM2435.46 1084.3H64.53V67.05H2435.46V1084.3Z" fill="white"/>
<path d="M1444.89 539.44C1392.96 539.44 1355.7 550.61 1327.63 574.58C1300.29 597.94 1287.55 629.7 1287.55 674.55C1287.55 716.14 1297.41 744.02 1320.53 767.75C1347.07 794.9 1383.88 808.56 1436.35 810.72C1445.05 811.39 1454.89 811.72 1466.44 811.72C1475.79 811.72 1484.83 811.36 1493.32 810.64C1533.09 808.35 1577.37 787.15 1603.56 757.89C1623.9 735.16 1632.86 709.23 1632.86 673.8V491.08C1632.86 436.14 1620.9 399.02 1594.96 374.28C1567.75 348.32 1525.88 336.23 1463.08 336.23C1425.13 336.23 1398.09 340.52 1372.61 350.59C1346.18 361.3 1323.2 379.51 1302.3 406.29L1299.92 409.35L1302.73 412.03L1343.67 451.07L1347.25 454.48L1350.12 450.46C1374.47 416.36 1410.73 399.78 1460.97 399.78C1499.2 399.78 1526.41 407.69 1544.3 423.96C1561.69 439.78 1570.08 463.57 1570.08 496.69V539.43H1444.9L1444.89 539.44ZM1570.07 642.49C1570.07 693.45 1562.83 710.9 1551.87 721.43C1530.61 742.06 1497.64 752.08 1450.99 752.08C1415.49 752.08 1388.47 745.61 1370.67 732.86C1353.08 720.26 1344.17 701.06 1344.17 675.79C1344.17 650.52 1353.25 629.47 1371.15 616.26C1389.03 603.05 1415.7 596.1 1450.41 596.1H1570.09V642.48L1570.07 642.49Z" fill="white"/>
<path d="M1951.87 815.11H1956V337.29H1951.87H1895.21H1890.15V341.95L1890.34 750.51L1691.83 749.21L1688 749.18V753.5V810.82V815.11H1691.7H1951.87Z" fill="white"/>
<path d="M905.04 777.06C932.25 803.02 974.12 815.11 1036.92 815.11C1074.87 815.11 1101.91 810.82 1127.39 800.75C1153.82 790.04 1176.8 771.83 1197.7 745.05L1200.08 741.99L1197.27 739.31L1156.33 700.27L1152.75 696.86L1149.88 700.88C1125.53 734.98 1089.27 751.56 1039.03 751.56C1000.8 751.56 973.59 743.65 955.7 727.38C938.31 711.56 929.92 687.77 929.92 654.65V611.43H1055.1C1107.03 611.43 1144.29 600.5 1172.36 576.53C1199.71 553.17 1212.44 521.53 1212.44 476.68C1212.44 435.09 1202.58 407.27 1179.46 383.54C1152.92 356.38 1116.11 342.76 1063.64 340.6C1054.94 339.93 1045.1 339.61 1033.55 339.61C1024.2 339.61 1015.16 339.98 1006.67 340.69C966.9 342.97 922.62 364.18 896.43 393.45C876.09 416.18 867.13 442.12 867.13 477.54V660.26C867.13 715.2 879.09 752.32 905.03 777.06H905.04ZM929.93 508.85C929.93 457.89 937.17 440.44 948.13 429.91C969.39 409.28 1002.36 399.26 1049.02 399.26C1084.52 399.26 1111.54 405.73 1129.34 418.48C1146.93 431.08 1155.84 450.28 1155.84 475.55C1155.84 500.82 1146.76 521.63 1128.86 534.84C1110.98 548.05 1084.31 554.76 1049.6 554.76H929.92V508.85H929.93Z" fill="white"/>
<path d="M604.79 815.11H609.85V809.39L609.66 400.83L808.17 402.13L812 402.16V397.84V340.52V337.29H810.47H808.3H548.13H547.06H544V340.52V809.39V815.11H548.13H604.79Z" fill="white"/>
</svg>
