<svg xmlns="http://www.w3.org/2000/svg" xmlns:xlink="http://www.w3.org/1999/xlink" width="500" zoomAndPan="magnify" viewBox="0 0 375.12 383.03998" height="500" preserveAspectRatio="xMidYMid meet" version="1.0"><defs><clipPath id="bba85e730c"><path d="M 159 261 L 215 261 L 215 317.953125 L 159 317.953125 Z M 159 261 " clip-rule="nonzero"/></clipPath></defs><path fill="#000000" d="M 191.84375 57.167969 L 182.300781 57.167969 C 182.300781 57.167969 154.820312 56.671875 157.125 79.429688 L 169.632812 233.289062 C 169.632812 233.289062 170.949219 257.199219 187.074219 259.011719 C 203.035156 257.199219 204.515625 233.289062 204.515625 233.289062 L 217.019531 79.429688 C 219.160156 56.671875 191.84375 57.167969 191.84375 57.167969 Z M 191.84375 57.167969 " fill-opacity="1" fill-rule="nonzero"/><g clip-path="url(#bba85e730c)"><path fill="#000000" d="M 214.71875 289.523438 C 214.71875 290.433594 214.671875 291.34375 214.582031 292.253906 C 214.496094 293.160156 214.359375 294.0625 214.183594 294.957031 C 214.003906 295.855469 213.785156 296.738281 213.519531 297.613281 C 213.253906 298.484375 212.949219 299.34375 212.601562 300.1875 C 212.253906 301.03125 211.863281 301.855469 211.433594 302.660156 C 211.003906 303.464844 210.535156 304.246094 210.03125 305.003906 C 209.523438 305.765625 208.984375 306.496094 208.40625 307.203125 C 207.828125 307.90625 207.214844 308.582031 206.574219 309.226562 C 205.929688 309.875 205.253906 310.484375 204.550781 311.066406 C 203.847656 311.644531 203.117188 312.1875 202.359375 312.695312 C 201.601562 313.203125 200.820312 313.667969 200.019531 314.101562 C 199.214844 314.53125 198.390625 314.921875 197.550781 315.269531 C 196.710938 315.617188 195.851562 315.925781 194.980469 316.191406 C 194.109375 316.457031 193.226562 316.675781 192.335938 316.855469 C 191.441406 317.035156 190.539062 317.167969 189.632812 317.257812 C 188.726562 317.347656 187.820312 317.390625 186.910156 317.390625 C 186 317.390625 185.089844 317.347656 184.183594 317.257812 C 183.277344 317.167969 182.375 317.035156 181.484375 316.855469 C 180.589844 316.675781 179.707031 316.457031 178.835938 316.191406 C 177.964844 315.925781 177.109375 315.617188 176.265625 315.269531 C 175.425781 314.921875 174.601562 314.53125 173.800781 314.101562 C 172.996094 313.667969 172.214844 313.203125 171.460938 312.695312 C 170.703125 312.1875 169.972656 311.644531 169.265625 311.066406 C 168.5625 310.484375 167.890625 309.875 167.246094 309.226562 C 166.601562 308.582031 165.988281 307.90625 165.414062 307.203125 C 164.835938 306.496094 164.292969 305.765625 163.785156 305.003906 C 163.28125 304.246094 162.8125 303.464844 162.382812 302.660156 C 161.953125 301.855469 161.566406 301.03125 161.21875 300.1875 C 160.867188 299.34375 160.5625 298.484375 160.296875 297.613281 C 160.03125 296.738281 159.8125 295.855469 159.632812 294.957031 C 159.457031 294.0625 159.324219 293.160156 159.234375 292.253906 C 159.144531 291.34375 159.101562 290.433594 159.101562 289.523438 C 159.101562 288.609375 159.144531 287.699219 159.234375 286.789062 C 159.324219 285.882812 159.457031 284.980469 159.632812 284.085938 C 159.8125 283.1875 160.03125 282.304688 160.296875 281.429688 C 160.5625 280.558594 160.867188 279.699219 161.21875 278.855469 C 161.566406 278.011719 161.953125 277.1875 162.382812 276.382812 C 162.8125 275.578125 163.28125 274.796875 163.785156 274.039062 C 164.292969 273.277344 164.835938 272.546875 165.414062 271.839844 C 165.988281 271.136719 166.601562 270.460938 167.246094 269.816406 C 167.890625 269.167969 168.5625 268.558594 169.265625 267.976562 C 169.972656 267.398438 170.703125 266.855469 171.460938 266.347656 C 172.214844 265.84375 172.996094 265.375 173.800781 264.941406 C 174.601562 264.511719 175.425781 264.121094 176.265625 263.773438 C 177.109375 263.425781 177.964844 263.117188 178.835938 262.851562 C 179.707031 262.585938 180.589844 262.367188 181.484375 262.1875 C 182.375 262.007812 183.277344 261.875 184.183594 261.785156 C 185.089844 261.695312 186 261.652344 186.910156 261.652344 C 187.820312 261.652344 188.726562 261.695312 189.632812 261.785156 C 190.539062 261.875 191.441406 262.007812 192.335938 262.1875 C 193.226562 262.367188 194.109375 262.585938 194.980469 262.851562 C 195.851562 263.117188 196.710938 263.425781 197.550781 263.773438 C 198.390625 264.121094 199.214844 264.511719 200.019531 264.941406 C 200.820312 265.375 201.601562 265.84375 202.359375 266.347656 C 203.117188 266.855469 203.847656 267.398438 204.550781 267.976562 C 205.253906 268.558594 205.929688 269.167969 206.574219 269.816406 C 207.214844 270.460938 207.828125 271.136719 208.40625 271.839844 C 208.984375 272.546875 209.523438 273.277344 210.03125 274.039062 C 210.535156 274.796875 211.003906 275.578125 211.433594 276.382812 C 211.863281 277.1875 212.253906 278.011719 212.601562 278.855469 C 212.949219 279.699219 213.253906 280.558594 213.519531 281.429688 C 213.785156 282.304688 214.003906 283.1875 214.183594 284.085938 C 214.359375 284.980469 214.496094 285.882812 214.582031 286.789062 C 214.671875 287.699219 214.71875 288.609375 214.71875 289.523438 Z M 214.71875 289.523438 " fill-opacity="1" fill-rule="nonzero"/></g></svg>