<svg xmlns="http://www.w3.org/2000/svg" xmlns:xlink="http://www.w3.org/1999/xlink" width="500" zoomAndPan="magnify" viewBox="0 0 375.12 383.03998" height="500" preserveAspectRatio="xMidYMid meet" version="1.0"><defs><clipPath id="24b11f2b85"><path d="M 66.3125 66.28125 L 307.957031 66.28125 L 307.957031 307.925781 L 66.3125 307.925781 Z M 66.3125 66.28125 " clip-rule="nonzero"/></clipPath><clipPath id="5e77ca72ed"><path d="M 1 148 L 95 148 L 95 241.925781 L 1 241.925781 Z M 1 148 " clip-rule="nonzero"/></clipPath><clipPath id="a3efc146db"><rect x="0" width="242" y="0" height="242"/></clipPath></defs><g clip-path="url(#24b11f2b85)"><g transform="matrix(1, 0, 0, 1, 66, 66)"><g clip-path="url(#a3efc146db)"><path fill="#000000" d="M 142.003906 193.242188 C 143.890625 193.242188 145.777344 193.1875 147.660156 193.070312 C 149.542969 192.957031 151.421875 192.785156 153.296875 192.554688 C 155.167969 192.324219 157.03125 192.035156 158.886719 191.691406 C 160.742188 191.347656 162.585938 190.945312 164.417969 190.488281 C 166.246094 190.03125 168.0625 189.515625 169.859375 188.949219 C 171.660156 188.378906 173.4375 187.753906 175.199219 187.078125 C 176.960938 186.398438 178.699219 185.667969 180.414062 184.882812 C 182.128906 184.097656 183.820312 183.257812 185.484375 182.371094 C 187.148438 181.480469 188.785156 180.542969 190.390625 179.550781 C 192 178.5625 193.574219 177.523438 195.117188 176.4375 C 196.660156 175.351562 198.167969 174.21875 199.640625 173.042969 C 201.113281 171.863281 202.550781 170.640625 203.949219 169.375 C 205.347656 168.105469 206.707031 166.796875 208.023438 165.449219 C 209.34375 164.097656 210.617188 162.707031 211.851562 161.28125 C 213.082031 159.851562 214.269531 158.386719 215.414062 156.886719 C 216.558594 155.382812 217.652344 153.847656 218.703125 152.28125 C 219.75 150.710938 220.75 149.113281 221.699219 147.480469 C 222.652344 145.851562 223.550781 144.195312 224.398438 142.507812 C 225.246094 140.824219 226.042969 139.113281 226.785156 137.378906 C 227.53125 135.644531 228.21875 133.890625 228.855469 132.113281 C 229.492188 130.335938 230.074219 128.542969 230.597656 126.730469 C 231.125 124.917969 231.59375 123.089844 232.007812 121.25 C 232.421875 119.410156 232.777344 117.554688 233.078125 115.695312 C 233.378906 113.832031 233.621094 111.960938 233.804688 110.082031 C 233.988281 108.203125 234.117188 106.324219 234.1875 104.4375 C 234.257812 102.550781 234.265625 100.664062 234.222656 98.777344 C 234.175781 96.890625 234.070312 95.007812 233.910156 93.128906 C 233.746094 91.25 233.527344 89.375 233.25 87.507812 C 232.972656 85.644531 232.640625 83.785156 232.25 81.941406 C 231.859375 80.09375 231.410156 78.261719 230.90625 76.445312 C 230.402344 74.625 229.84375 72.824219 229.230469 71.039062 C 228.617188 69.253906 227.949219 67.492188 227.226562 65.75 C 226.503906 64.003906 225.730469 62.285156 224.902344 60.589844 C 224.074219 58.894531 223.195312 57.226562 222.265625 55.585938 C 221.332031 53.941406 220.355469 52.332031 219.324219 50.75 C 218.296875 49.167969 217.21875 47.621094 216.09375 46.105469 C 214.96875 44.589844 213.800781 43.109375 212.585938 41.667969 C 211.371094 40.222656 210.109375 38.816406 208.808594 37.453125 C 207.507812 36.085938 206.167969 34.761719 204.785156 33.476562 C 203.402344 32.191406 201.980469 30.953125 200.519531 29.753906 C 199.0625 28.558594 197.566406 27.40625 196.039062 26.304688 C 194.507812 25.199219 192.945312 24.140625 191.351562 23.132812 C 189.757812 22.121094 188.132812 21.164062 186.480469 20.253906 C 184.828125 19.34375 183.148438 18.488281 181.441406 17.679688 C 179.734375 16.875 178.003906 16.121094 176.253906 15.421875 C 174.5 14.722656 172.730469 14.078125 170.9375 13.484375 C 169.144531 12.894531 167.335938 12.359375 165.511719 11.878906 C 163.6875 11.398438 161.847656 10.972656 160 10.605469 C 158.148438 10.238281 156.285156 9.929688 154.417969 9.675781 C 152.546875 9.421875 150.671875 9.226562 148.789062 9.089844 C 146.90625 8.953125 145.023438 8.871094 143.136719 8.847656 C 141.25 8.828125 139.363281 8.863281 137.480469 8.957031 C 135.59375 9.050781 133.714844 9.199219 131.839844 9.410156 C 129.964844 9.617188 128.097656 9.886719 126.238281 10.207031 C 124.378906 10.53125 122.53125 10.914062 120.695312 11.351562 C 118.859375 11.785156 117.039062 12.28125 115.234375 12.828125 C 113.429688 13.378906 111.640625 13.980469 109.875 14.640625 C 108.105469 15.296875 106.359375 16.011719 104.632812 16.777344 C 102.910156 17.542969 101.210938 18.359375 99.535156 19.230469 C 97.863281 20.097656 96.214844 21.019531 94.597656 21.992188 C 92.980469 22.960938 91.394531 23.980469 89.839844 25.050781 C 88.28125 26.121094 86.761719 27.234375 85.273438 28.394531 C 83.789062 29.558594 82.339844 30.765625 80.925781 32.015625 C 79.511719 33.265625 78.140625 34.558594 76.808594 35.894531 C 75.203125 37.496094 73.664062 39.152344 72.183594 40.863281 C 70.703125 42.578125 69.289062 44.34375 67.941406 46.164062 C 66.589844 47.980469 65.308594 49.84375 64.097656 51.757812 C 62.886719 53.667969 61.746094 55.625 60.675781 57.621094 C 59.609375 59.617188 58.617188 61.648438 57.699219 63.71875 C 56.777344 65.789062 55.9375 67.890625 55.175781 70.019531 C 54.410156 72.152344 53.726562 74.308594 53.121094 76.492188 C 52.519531 78.671875 51.996094 80.875 51.554688 83.09375 C 51.109375 85.316406 50.75 87.546875 50.472656 89.796875 C 50.195312 92.042969 50 94.296875 49.890625 96.558594 C 49.777344 98.820312 49.75 101.082031 49.804688 103.34375 C 49.859375 105.609375 50 107.867188 50.222656 110.121094 C 50.441406 112.375 50.746094 114.617188 51.132812 116.847656 C 51.519531 119.078125 51.988281 121.289062 52.539062 123.488281 C 53.089844 125.683594 53.71875 127.855469 54.429688 130.003906 C 55.140625 132.15625 55.929688 134.277344 56.796875 136.367188 C 57.664062 138.460938 58.605469 140.515625 59.625 142.539062 C 60.640625 144.5625 61.734375 146.542969 62.898438 148.484375 C 64.0625 150.425781 65.296875 152.324219 66.601562 154.171875 C 67.90625 156.023438 69.277344 157.824219 70.710938 159.574219 C 72.148438 161.324219 73.648438 163.019531 75.210938 164.65625 C 76.773438 166.296875 78.390625 167.875 80.070312 169.394531 C 81.75 170.914062 83.480469 172.371094 85.265625 173.765625 C 87.050781 175.15625 88.886719 176.480469 90.769531 177.738281 C 92.652344 178.996094 94.578125 180.179688 96.550781 181.296875 C 98.519531 182.410156 100.527344 183.449219 102.578125 184.417969 C 104.625 185.382812 106.703125 186.273438 108.816406 187.089844 C 110.929688 187.902344 113.070312 188.636719 115.238281 189.292969 C 117.402344 189.949219 119.589844 190.523438 121.800781 191.019531 C 124.011719 191.511719 126.234375 191.925781 128.476562 192.253906 C 130.714844 192.585938 132.964844 192.832031 135.222656 193 C 137.480469 193.164062 139.742188 193.246094 142.003906 193.242188 Z M 142.003906 29.15625 C 143.378906 29.152344 144.753906 29.191406 146.125 29.265625 C 147.496094 29.339844 148.867188 29.457031 150.230469 29.609375 C 151.597656 29.765625 152.957031 29.957031 154.3125 30.191406 C 155.667969 30.421875 157.015625 30.691406 158.355469 31 C 159.691406 31.3125 161.023438 31.660156 162.339844 32.042969 C 163.660156 32.429688 164.96875 32.851562 166.261719 33.3125 C 167.558594 33.773438 168.839844 34.269531 170.105469 34.804688 C 171.371094 35.335938 172.621094 35.90625 173.855469 36.511719 C 175.089844 37.117188 176.304688 37.757812 177.5 38.433594 C 178.699219 39.109375 179.875 39.816406 181.03125 40.558594 C 182.1875 41.300781 183.324219 42.078125 184.433594 42.886719 C 185.546875 43.691406 186.636719 44.53125 187.699219 45.402344 C 188.761719 46.269531 189.800781 47.171875 190.8125 48.101562 C 191.828125 49.03125 192.8125 49.988281 193.769531 50.972656 C 194.726562 51.960938 195.65625 52.972656 196.554688 54.011719 C 197.453125 55.050781 198.324219 56.113281 199.160156 57.203125 C 200 58.292969 200.808594 59.402344 201.582031 60.539062 C 202.355469 61.675781 203.097656 62.832031 203.808594 64.007812 C 204.515625 65.1875 205.191406 66.382812 205.828125 67.597656 C 206.46875 68.816406 207.074219 70.050781 207.644531 71.300781 C 208.210938 72.550781 208.746094 73.816406 209.242188 75.097656 C 209.738281 76.378906 210.199219 77.675781 210.621094 78.984375 C 211.042969 80.292969 211.429688 81.609375 211.773438 82.941406 C 212.121094 84.269531 212.429688 85.609375 212.699219 86.957031 C 212.96875 88.304688 213.203125 89.65625 213.394531 91.019531 C 213.585938 92.378906 213.738281 93.746094 213.855469 95.113281 C 213.96875 96.484375 214.042969 97.855469 214.078125 99.230469 C 214.113281 100.605469 214.109375 101.976562 214.066406 103.351562 C 214.023438 104.726562 213.941406 106.097656 213.820312 107.464844 C 213.699219 108.835938 213.539062 110.199219 213.335938 111.558594 C 213.136719 112.917969 212.898438 114.269531 212.621094 115.617188 C 212.34375 116.964844 212.027344 118.300781 211.671875 119.628906 C 211.320312 120.957031 210.929688 122.273438 210.5 123.578125 C 210.070312 124.882812 209.601562 126.175781 209.097656 127.457031 C 208.59375 128.734375 208.054688 129.996094 207.480469 131.246094 C 206.902344 132.492188 206.292969 133.722656 205.644531 134.9375 C 205 136.148438 204.316406 137.34375 203.601562 138.515625 C 202.886719 139.691406 202.140625 140.84375 201.359375 141.972656 C 200.578125 143.105469 199.765625 144.210938 198.921875 145.296875 C 198.074219 146.378906 197.199219 147.4375 196.296875 148.472656 C 195.390625 149.507812 194.457031 150.515625 193.492188 151.496094 C 192.53125 152.476562 191.539062 153.429688 190.523438 154.351562 C 189.503906 155.277344 188.460938 156.171875 187.394531 157.035156 C 186.324219 157.898438 185.230469 158.730469 184.113281 159.53125 C 183 160.332031 181.859375 161.101562 180.699219 161.839844 C 179.539062 162.574219 178.359375 163.277344 177.15625 163.945312 C 175.957031 164.613281 174.738281 165.25 173.5 165.847656 C 172.261719 166.445312 171.007812 167.007812 169.738281 167.535156 C 168.46875 168.0625 167.1875 168.550781 165.890625 169.003906 C 164.59375 169.457031 163.28125 169.875 161.960938 170.253906 C 160.640625 170.628906 159.308594 170.96875 157.96875 171.273438 C 156.628906 171.574219 155.277344 171.835938 153.921875 172.0625 C 152.566406 172.285156 151.207031 172.472656 149.839844 172.617188 C 148.472656 172.765625 147.101562 172.871094 145.730469 172.941406 C 144.359375 173.007812 142.984375 173.039062 141.609375 173.027344 C 140.234375 173.015625 138.863281 172.964844 137.492188 172.878906 C 136.121094 172.789062 134.75 172.660156 133.386719 172.492188 C 132.023438 172.324219 130.664062 172.117188 129.3125 171.871094 C 127.960938 171.625 126.617188 171.34375 125.28125 171.019531 C 123.945312 170.695312 122.621094 170.335938 121.304688 169.9375 C 119.988281 169.539062 118.6875 169.101562 117.394531 168.628906 C 116.105469 168.15625 114.828125 167.648438 113.566406 167.101562 C 112.308594 166.554688 111.0625 165.972656 109.835938 165.355469 C 108.605469 164.734375 107.398438 164.082031 106.207031 163.398438 C 105.015625 162.710938 103.847656 161.988281 102.699219 161.234375 C 101.550781 160.480469 100.421875 159.695312 99.320312 158.875 C 98.214844 158.058594 97.136719 157.207031 96.082031 156.328125 C 95.023438 155.445312 93.996094 154.535156 92.992188 153.597656 C 91.988281 152.65625 91.015625 151.691406 90.066406 150.695312 C 89.117188 149.699219 88.199219 148.679688 87.3125 147.628906 C 86.421875 146.582031 85.5625 145.507812 84.734375 144.410156 C 83.910156 143.316406 83.113281 142.195312 82.347656 141.050781 C 81.585938 139.910156 80.855469 138.746094 80.160156 137.558594 C 79.460938 136.375 78.800781 135.171875 78.171875 133.949219 C 77.542969 132.726562 76.953125 131.488281 76.394531 130.230469 C 75.839844 128.972656 75.320312 127.703125 74.835938 126.414062 C 74.351562 125.128906 73.90625 123.832031 73.496094 122.519531 C 73.085938 121.207031 72.714844 119.882812 72.382812 118.550781 C 72.046875 117.21875 71.753906 115.875 71.496094 114.523438 C 71.238281 113.175781 71.019531 111.820312 70.84375 110.457031 C 70.664062 109.09375 70.523438 107.726562 70.421875 106.355469 C 70.324219 104.984375 70.261719 103.613281 70.238281 102.238281 C 70.21875 100.863281 70.234375 99.492188 70.292969 98.117188 C 70.347656 96.742188 70.445312 95.375 70.582031 94.003906 C 70.714844 92.636719 70.890625 91.273438 71.105469 89.917969 C 71.316406 88.558594 71.570312 87.210938 71.859375 85.867188 C 72.152344 84.523438 72.480469 83.1875 72.847656 81.863281 C 73.214844 80.539062 73.621094 79.226562 74.0625 77.925781 C 74.503906 76.625 74.984375 75.335938 75.5 74.0625 C 76.019531 72.789062 76.570312 71.53125 77.160156 70.289062 C 77.746094 69.046875 78.371094 67.824219 79.03125 66.617188 C 79.6875 65.410156 80.382812 64.226562 81.109375 63.058594 C 81.835938 61.890625 82.59375 60.746094 83.386719 59.625 C 84.179688 58.5 85.003906 57.402344 85.859375 56.328125 C 86.710938 55.25 87.597656 54.199219 88.515625 53.175781 C 89.429688 52.148438 90.375 51.152344 91.347656 50.179688 C 94.671875 46.851562 98.289062 43.882812 102.203125 41.265625 C 106.113281 38.648438 110.242188 36.441406 114.585938 34.636719 C 118.933594 32.832031 123.414062 31.46875 128.027344 30.546875 C 132.640625 29.625 137.300781 29.164062 142.003906 29.15625 Z M 142.003906 29.15625 " fill-opacity="1" fill-rule="nonzero"/><g clip-path="url(#5e77ca72ed)"><path fill="#000000" d="M 11.304688 241.925781 C 12.644531 241.921875 13.933594 241.660156 15.171875 241.140625 C 16.410156 240.621094 17.5 239.886719 18.449219 238.9375 L 91.144531 166.292969 C 91.613281 165.820312 92.035156 165.308594 92.402344 164.753906 C 92.773438 164.203125 93.085938 163.617188 93.339844 163.003906 C 93.597656 162.386719 93.789062 161.753906 93.917969 161.101562 C 94.046875 160.449219 94.113281 159.789062 94.113281 159.125 C 94.113281 158.457031 94.046875 157.796875 93.917969 157.144531 C 93.789062 156.492188 93.597656 155.859375 93.339844 155.242188 C 93.085938 154.628906 92.773438 154.042969 92.402344 153.492188 C 92.035156 152.9375 91.613281 152.425781 91.144531 151.957031 C 90.671875 151.484375 90.160156 151.0625 89.605469 150.695312 C 89.054688 150.324219 88.46875 150.011719 87.855469 149.757812 C 87.238281 149.503906 86.605469 149.308594 85.953125 149.179688 C 85.300781 149.050781 84.640625 148.984375 83.976562 148.984375 C 83.308594 148.984375 82.648438 149.050781 81.996094 149.179688 C 81.34375 149.3125 80.710938 149.503906 80.097656 149.757812 C 79.480469 150.011719 78.898438 150.324219 78.34375 150.695312 C 77.789062 151.0625 77.277344 151.484375 76.808594 151.957031 L 4.160156 224.652344 C 3.457031 225.359375 2.871094 226.15625 2.402344 227.035156 C 1.933594 227.917969 1.601562 228.847656 1.40625 229.828125 C 1.214844 230.808594 1.167969 231.796875 1.265625 232.789062 C 1.363281 233.785156 1.601562 234.742188 1.984375 235.664062 C 2.367188 236.589844 2.871094 237.4375 3.503906 238.210938 C 4.136719 238.984375 4.867188 239.648438 5.699219 240.203125 C 6.527344 240.761719 7.417969 241.1875 8.375 241.480469 C 9.328125 241.773438 10.304688 241.921875 11.304688 241.925781 Z M 11.304688 241.925781 " fill-opacity="1" fill-rule="nonzero"/></g></g></g></g></svg>