<svg xmlns="http://www.w3.org/2000/svg" xmlns:xlink="http://www.w3.org/1999/xlink" width="500" zoomAndPan="magnify" viewBox="0 0 375.12 383.03998" height="500" preserveAspectRatio="xMidYMid meet" version="1.0"><defs><clipPath id="b6c46385fe"><path d="M 25.390625 120.140625 L 348.582031 120.140625 L 348.582031 254.054688 L 25.390625 254.054688 Z M 25.390625 120.140625 " clip-rule="nonzero"/></clipPath></defs><g clip-path="url(#b6c46385fe)"><path fill="#0c0c0c" d="M 342.441406 177.617188 L 158.484375 177.617188 C 157.710938 171.9375 156.167969 166.328125 153.910156 161.039062 C 150.5625 153.039062 145.730469 145.878906 139.613281 139.75 C 133.492188 133.621094 126.34375 128.785156 118.355469 125.429688 C 110.113281 121.945312 101.351562 120.140625 92.335938 120.140625 C 83.316406 120.140625 74.558594 121.882812 66.3125 125.429688 C 58.328125 128.785156 51.175781 133.621094 45.058594 139.75 C 38.9375 145.878906 34.109375 153.039062 30.757812 161.039062 C 27.28125 169.292969 25.476562 178.066406 25.476562 187.097656 C 25.476562 196.128906 27.214844 204.902344 30.757812 213.15625 C 34.109375 221.15625 38.9375 228.316406 45.058594 234.445312 C 51.175781 240.574219 58.328125 245.410156 66.3125 248.765625 C 74.558594 252.25 83.316406 254.054688 92.335938 254.054688 C 101.351562 254.054688 110.113281 252.3125 118.355469 248.765625 C 126.34375 245.410156 133.492188 240.574219 139.613281 234.445312 C 145.730469 228.316406 150.5625 221.15625 153.910156 213.15625 C 156.167969 207.804688 157.710938 202.257812 158.484375 196.582031 L 274.101562 196.582031 C 274.039062 196.902344 273.972656 197.160156 273.972656 197.355469 L 273.972656 220.316406 C 273.972656 220.964844 274.230469 222.574219 276.613281 223.15625 C 277.128906 223.285156 277.773438 223.351562 278.609375 223.414062 C 280.222656 223.542969 282.28125 223.671875 284.472656 223.671875 C 286.660156 223.671875 288.722656 223.609375 290.332031 223.414062 C 291.171875 223.351562 291.816406 223.222656 292.328125 223.15625 C 294.714844 222.640625 294.972656 221.027344 294.972656 220.316406 L 294.972656 197.355469 C 294.972656 197.160156 294.972656 196.902344 294.84375 196.582031 L 308.5625 196.582031 L 308.5625 234.636719 C 308.5625 235.21875 308.753906 236.765625 310.816406 237.542969 C 311.394531 237.800781 312.105469 237.929688 313.070312 238.121094 C 314.679688 238.378906 316.871094 238.574219 319.125 238.574219 C 321.378906 238.574219 323.503906 238.445312 325.179688 238.121094 C 326.082031 237.992188 326.855469 237.800781 327.433594 237.542969 C 329.429688 236.703125 329.6875 235.21875 329.6875 234.636719 L 329.6875 196.582031 L 342.441406 196.582031 C 345.789062 196.582031 348.496094 192.324219 348.496094 187.097656 C 348.496094 181.871094 345.789062 177.617188 342.441406 177.617188 Z M 92.269531 237.285156 C 64.640625 237.285156 42.160156 214.769531 42.160156 187.097656 C 42.160156 159.425781 64.640625 136.910156 92.269531 136.910156 C 119.902344 136.910156 142.382812 159.425781 142.382812 187.097656 C 142.382812 214.769531 119.902344 237.285156 92.269531 237.285156 Z M 92.269531 237.285156 " fill-opacity="1" fill-rule="nonzero"/></g></svg>