<svg xmlns="http://www.w3.org/2000/svg" xmlns:xlink="http://www.w3.org/1999/xlink" width="500" zoomAndPan="magnify" viewBox="0 0 375.12 383.03998" height="500" preserveAspectRatio="xMidYMid meet" version="1.0"><defs><clipPath id="973a4fce53"><path d="M 99.011719 40.28125 L 274.820312 40.28125 L 274.820312 333.546875 L 99.011719 333.546875 Z M 99.011719 40.28125 " clip-rule="nonzero"/></clipPath></defs><g clip-path="url(#973a4fce53)"><path fill="#000000" d="M 196.804688 40.285156 L 103.042969 69.609375 C 100.707031 70.78125 99.011719 73.140625 99.011719 75.476562 L 99.011719 304.21875 C 99.011719 307.152344 100.84375 309.488281 103.773438 310.085938 L 197.539062 333.546875 L 198.636719 333.546875 C 199.804688 333.546875 200.949219 333.042969 202.117188 332.445312 C 203.285156 331.277344 204.496094 329.445312 204.496094 327.679688 L 204.496094 46.148438 C 204.496094 44.386719 203.285156 42.554688 202.117188 41.382812 C 200.355469 40.214844 198.570312 40.285156 196.804688 40.285156 Z M 216.21875 63.746094 L 216.21875 75.476562 L 263.101562 75.476562 L 263.101562 298.355469 L 216.21875 298.355469 L 216.21875 310.085938 L 268.960938 310.085938 C 272.1875 310.085938 274.820312 307.449219 274.820312 304.21875 L 274.820312 69.609375 C 274.820312 66.378906 272.1875 63.746094 268.960938 63.746094 Z M 181.054688 181.050781 C 184.582031 181.050781 186.917969 185.152344 186.917969 189.847656 C 186.917969 194.542969 184.582031 198.644531 181.054688 198.644531 C 177.53125 198.644531 175.195312 194.542969 175.195312 189.847656 C 175.195312 185.152344 177.53125 181.050781 181.054688 181.050781 Z M 181.054688 181.050781 " fill-opacity="1" fill-rule="nonzero"/></g></svg>