<svg xmlns="http://www.w3.org/2000/svg" xmlns:xlink="http://www.w3.org/1999/xlink" width="500" zoomAndPan="magnify" viewBox="0 0 375.12 383.03998" height="500" preserveAspectRatio="xMidYMid meet" version="1.0"><defs><clipPath id="607cc44120"><path d="M 44.152344 56.269531 L 329.933594 56.269531 L 329.933594 318.113281 L 44.152344 318.113281 Z M 44.152344 56.269531 " clip-rule="nonzero"/></clipPath></defs><g clip-path="url(#607cc44120)"><path fill="#000000" d="M 49.222656 300.695312 C 59.050781 296.289062 76.128906 291.679688 110.902344 302.503906 C 115.195312 303.839844 119.582031 305.308594 123.816406 306.726562 C 140.402344 312.285156 157.554688 318.027344 175.480469 318.125 C 175.621094 318.125 175.761719 318.125 175.910156 318.125 C 192.078125 318.125 208.960938 313.550781 226.097656 304.527344 C 241.96875 296.175781 255.875 285.253906 268.53125 274.699219 C 287.734375 258.695312 306.316406 241.492188 323.757812 223.582031 C 325.917969 221.363281 329.183594 218.011719 329.78125 213.464844 C 330.730469 206.269531 324.550781 200.40625 318.289062 199.101562 C 312.441406 197.878906 306.640625 199.71875 301.75 201.675781 C 285.789062 208.054688 271.570312 217.753906 257.871094 227.367188 C 255.878906 223.792969 252.183594 221.007812 247.617188 219.746094 C 243.273438 218.542969 238.804688 218.765625 234.605469 219.097656 C 225.199219 219.847656 215.304688 222.183594 205.726562 224.445312 C 193.015625 227.445312 179.867188 230.554688 167.789062 229.972656 C 160.949219 229.640625 154.472656 227.617188 147.617188 225.476562 C 138.75 222.707031 128.703125 219.5625 115.914062 219.496094 C 115.820312 219.496094 115.722656 219.496094 115.628906 219.496094 C 112.4375 219.496094 109.113281 219.78125 105.660156 220.34375 C 105.773438 219.933594 105.8125 219.496094 105.765625 219.046875 L 98.421875 149.152344 L 183.328125 96.234375 C 185.527344 94.863281 188.363281 94.867188 190.5625 96.238281 L 280.015625 152.242188 C 279.632812 152.761719 279.378906 153.382812 279.328125 154.070312 L 275.730469 200.039062 C 275.578125 201.996094 277.039062 203.710938 278.996094 203.867188 C 279.089844 203.871094 279.183594 203.878906 279.277344 203.878906 C 281.117188 203.878906 282.671875 202.460938 282.816406 200.597656 L 286.292969 156.175781 L 296.972656 162.863281 C 298.5625 163.859375 300.652344 163.445312 301.75 161.917969 L 314.183594 144.566406 C 314.738281 143.789062 314.964844 142.816406 314.792969 141.875 C 314.621094 140.929688 314.089844 140.09375 313.292969 139.554688 L 277.085938 114.859375 L 277.359375 63.167969 C 277.371094 61.324219 276.65625 59.578125 275.359375 58.273438 C 274.058594 56.96875 272.332031 56.25 270.488281 56.25 C 270.480469 56.25 270.480469 56.25 270.476562 56.25 L 251.269531 56.28125 C 247.496094 56.285156 244.417969 59.363281 244.410156 63.148438 C 244.398438 69.34375 244.410156 82.980469 244.730469 92.792969 L 196.484375 59.886719 C 191.746094 56.652344 185.613281 56.636719 180.859375 59.839844 L 61.65625 140.117188 C 60.085938 141.175781 59.617188 143.28125 60.59375 144.90625 L 70.878906 162.054688 C 71.371094 162.875 72.164062 163.460938 73.09375 163.679688 C 73.367188 163.746094 73.652344 163.78125 73.929688 163.78125 C 74.589844 163.78125 75.238281 163.597656 75.808594 163.242188 L 91.707031 153.335938 L 98.691406 219.792969 C 98.765625 220.492188 99.035156 221.121094 99.445312 221.632812 C 93.285156 223.164062 86.773438 225.503906 79.957031 228.667969 C 66.609375 234.855469 55.347656 242.621094 48.242188 248.046875 C 46.6875 249.238281 46.382812 251.476562 47.574219 253.035156 C 48.765625 254.601562 51 254.898438 52.558594 253.707031 C 60.886719 247.335938 89.984375 226.613281 115.617188 226.613281 C 115.699219 226.613281 115.785156 226.613281 115.867188 226.613281 C 127.589844 226.675781 136.6875 229.523438 145.492188 232.273438 C 152.796875 234.558594 159.691406 236.710938 167.441406 237.085938 C 180.527344 237.714844 194.164062 234.492188 207.355469 231.378906 C 217.09375 229.078125 226.300781 226.90625 235.164062 226.199219 C 238.882812 225.902344 242.484375 225.714844 245.714844 226.609375 C 248.8125 227.46875 251.242188 229.421875 252.058594 231.710938 C 253.070312 234.546875 251.761719 237.773438 250.199219 239.84375 C 248.066406 242.667969 244.867188 244.730469 241.78125 246.605469 C 227.363281 255.351562 211.757812 261.839844 195.394531 265.890625 C 193.488281 266.367188 192.328125 268.292969 192.800781 270.203125 C 193.203125 271.824219 194.648438 272.910156 196.25 272.910156 C 196.53125 272.910156 196.816406 272.875 197.109375 272.800781 C 214.167969 268.578125 230.441406 261.808594 245.472656 252.691406 C 248.984375 250.558594 252.984375 247.964844 255.875 244.136719 C 258.03125 241.292969 259.257812 238.074219 259.488281 234.9375 C 273.617188 224.996094 288.230469 214.75 304.378906 208.296875 C 308.492188 206.652344 312.84375 205.246094 316.835938 206.078125 C 319.933594 206.726562 323.117188 209.625 322.730469 212.542969 C 322.464844 214.585938 320.65625 216.582031 318.667969 218.625 C 301.394531 236.363281 283 253.386719 263.984375 269.238281 C 251.621094 279.542969 238.070312 290.191406 222.789062 298.234375 C 206.679688 306.714844 190.910156 311.011719 175.90625 311.011719 C 175.777344 311.011719 175.644531 311.011719 175.507812 311.011719 C 158.726562 310.929688 142.121094 305.363281 126.066406 299.984375 C 121.796875 298.554688 117.375 297.070312 113.011719 295.710938 C 95.257812 290.183594 69.023438 284.015625 46.3125 294.199219 C 44.523438 295 43.71875 297.105469 44.523438 298.902344 C 45.324219 300.695312 47.425781 301.496094 49.222656 300.695312 Z M 251.511719 63.398438 L 270.25 63.367188 L 270.003906 110.03125 L 252.058594 97.792969 C 251.523438 88.71875 251.496094 70.933594 251.511719 63.398438 Z M 75.113281 155.289062 L 68.425781 144.140625 L 184.820312 65.746094 C 187.148438 64.175781 190.160156 64.1875 192.476562 65.773438 L 306.261719 143.375 L 297.898438 155.050781 L 194.324219 90.199219 C 189.84375 87.394531 184.050781 87.386719 179.566406 90.1875 Z M 75.113281 155.289062 " fill-opacity="1" fill-rule="nonzero"/></g><path fill="#000000" d="M 217.480469 133.117188 C 206.273438 130.417969 193.765625 136.078125 187.777344 145.683594 C 182.746094 139.734375 175.296875 132.746094 165.628906 132.609375 C 165.539062 132.609375 165.445312 132.609375 165.355469 132.609375 C 152.410156 132.609375 143.082031 145.464844 142.777344 157.125 C 142.523438 166.945312 146.996094 177.234375 156.066406 187.722656 C 158.511719 190.554688 161.195312 193.417969 164.035156 196.457031 C 169.140625 201.917969 174.425781 207.574219 178.25 212.976562 C 178.9375 213.945312 180.027344 214.476562 181.15625 214.476562 C 181.679688 214.476562 182.214844 214.359375 182.710938 214.117188 C 195.808594 207.714844 208.613281 198.234375 217.828125 188.097656 C 228.949219 175.878906 234.578125 163.230469 234.113281 151.527344 C 233.777344 143.109375 226.78125 135.359375 217.480469 133.117188 Z M 212.570312 183.3125 C 204.546875 192.125 193.613281 200.425781 182.226562 206.390625 C 178.40625 201.414062 173.75 196.433594 169.230469 191.597656 C 166.4375 188.613281 163.804688 185.796875 161.445312 183.066406 C 153.574219 173.960938 149.6875 165.292969 149.894531 157.308594 C 150.113281 148.964844 156.757812 139.726562 165.367188 139.726562 C 165.421875 139.726562 165.480469 139.726562 165.53125 139.726562 C 173.75 139.839844 180.289062 147.445312 185.769531 154.570312 C 186.582031 155.625 187.914062 156.136719 189.222656 155.898438 C 190.53125 155.660156 191.597656 154.710938 191.984375 153.4375 C 194.878906 143.9375 206.015625 137.679688 215.816406 140.042969 C 221.988281 141.53125 226.796875 146.589844 227.007812 151.824219 C 227.496094 164.191406 219.421875 175.777344 212.570312 183.3125 Z M 212.570312 183.3125 " fill-opacity="1" fill-rule="nonzero"/></svg>