<svg xmlns="http://www.w3.org/2000/svg" xmlns:xlink="http://www.w3.org/1999/xlink" width="500" zoomAndPan="magnify" viewBox="0 0 375.12 383.03998" height="500" preserveAspectRatio="xMidYMid meet" version="1.0"><defs><clipPath id="5f30f9da07"><path d="M 21.132812 41.84375 L 353.300781 41.84375 L 353.300781 332.117188 L 21.132812 332.117188 Z M 21.132812 41.84375 " clip-rule="nonzero"/></clipPath></defs><g clip-path="url(#5f30f9da07)"><path fill="#000000" d="M 187.3125 95.511719 C 203.855469 73.933594 225.609375 55.386719 251.605469 47.332031 C 277.601562 39.316406 308.136719 43.175781 328.394531 61.308594 C 344.523438 75.769531 352.699219 97.761719 353.265625 119.375 C 353.863281 141.03125 347.449219 162.347656 338.183594 181.941406 C 309.414062 242.558594 254.871094 286.46875 200.890625 326.402344 C 197.289062 329.0625 193.425781 331.796875 189 332.023438 C 184.421875 332.25 180.222656 329.738281 176.359375 327.265625 C 133.59375 299.917969 95.480469 265.261719 64.199219 225.25 C 43.976562 199.363281 26.199219 170.101562 21.960938 137.546875 C 17.71875 104.992188 29.875 68.613281 58.121094 51.792969 C 79.503906 39.054688 107.074219 39.351562 130.179688 48.757812 C 153.25 58.121094 172.230469 75.695312 187.3125 95.511719 M 200.816406 102.894531 C 197.664062 107.6875 193.914062 113.308594 188.175781 113.457031 C 182.847656 113.570312 178.910156 108.8125 175.644531 104.617188 C 163.042969 88.207031 148.074219 73.035156 129.429688 64.003906 C 110.785156 54.976562 88.015625 52.839844 69.488281 62.132812 C 44.691406 74.570312 32.875 104.992188 35.464844 132.601562 C 38.089844 160.175781 52.492188 185.277344 68.847656 207.640625 C 99.234375 249.226562 137.609375 284.929688 180.746094 313.105469 C 183.261719 314.714844 186 316.402344 188.960938 316.101562 C 191.4375 315.875 193.574219 314.339844 195.527344 312.839844 C 244.816406 275.675781 294.40625 235.476562 322.953125 180.855469 C 332.667969 162.3125 339.835938 141.855469 339.273438 120.949219 C 338.746094 100.046875 329.554688 78.652344 312.113281 67.078125 C 291.558594 53.402344 263.535156 55.835938 241.476562 66.851562 C 225.085938 75.058594 210.90625 87.605469 200.816406 102.894531 " fill-opacity="1" fill-rule="nonzero"/></g></svg>