<svg xmlns="http://www.w3.org/2000/svg" xmlns:xlink="http://www.w3.org/1999/xlink" width="2000" zoomAndPan="magnify" viewBox="0 0 1500 1499.999933" height="2000" preserveAspectRatio="xMidYMid meet" version="1.0"><defs><clipPath id="08af1127d7"><path d="M 272 331 L 1228.4375 331 L 1228.4375 1284 L 272 1284 Z M 272 331 " clip-rule="nonzero"/></clipPath><clipPath id="2c0f6d02e9"><path d="M 659 216.039062 L 1095 216.039062 L 1095 652 L 659 652 Z M 659 216.039062 " clip-rule="nonzero"/></clipPath></defs><rect x="-150" width="1800" fill="#ffffff" y="-149.999993" height="1799.99992" fill-opacity="1"/><rect x="-150" width="1800" fill="#ffffff" y="-149.999993" height="1799.99992" fill-opacity="1"/><g clip-path="url(#08af1127d7)"><path fill="#000000" d="M 1216.738281 1183.027344 L 979.277344 944.839844 C 979.390625 944.722656 979.503906 944.609375 979.617188 944.496094 C 1013.800781 897.019531 1036.398438 843.746094 1046.960938 786.15625 C 1057.183594 730.5 1055.136719 672.117188 1041.054688 617.597656 C 1038.785156 608.851562 1032.652344 601.808594 1024.25 598.398438 C 1015.730469 594.992188 1006.417969 595.675781 998.46875 600.558594 C 987.679688 607.144531 982.457031 619.753906 985.636719 632.023438 C 999.945312 687.566406 999.71875 746.402344 984.957031 802.058594 C 969.738281 859.421875 939.304688 912.011719 897.058594 954.039062 C 833.6875 1017.078125 749.652344 1051.835938 660.503906 1051.949219 C 660.390625 1051.949219 660.164062 1051.949219 660.050781 1051.949219 C 571.015625 1051.949219 487.660156 1017.417969 425.316406 954.71875 C 296.078125 824.890625 297.554688 613.167969 428.496094 482.882812 C 480.960938 430.632812 547.394531 397.921875 620.53125 388.039062 C 635.632812 385.992188 646.421875 372.476562 645.058594 357.144531 C 644.378906 349.304688 640.519531 342.261719 634.386719 337.265625 C 628.253906 332.382812 620.53125 330.222656 612.808594 331.359375 C 527.410156 343.058594 449.84375 381.449219 388.40625 442.558594 C 314.136719 516.503906 272.914062 614.644531 272.117188 719.027344 C 271.4375 823.414062 311.296875 921.4375 384.660156 995.15625 C 450.414062 1061.265625 537.96875 1101.472656 631.207031 1108.175781 C 640.632812 1108.855469 650.058594 1109.195312 659.484375 1109.195312 C 742.15625 1109.195312 823.128906 1083.074219 890.359375 1034.230469 C 890.472656 1034.117188 890.585938 1034.003906 890.699219 1034.003906 L 1127.820312 1271.851562 C 1135.199219 1279.347656 1145.195312 1283.4375 1155.753906 1283.550781 C 1166.65625 1283.664062 1176.992188 1279.460938 1184.714844 1271.738281 L 1216.511719 1239.933594 C 1224.121094 1232.324219 1228.324219 1222.214844 1228.4375 1211.425781 C 1228.324219 1200.746094 1224.234375 1190.636719 1216.738281 1183.027344 Z M 1216.738281 1183.027344 " fill-opacity="1" fill-rule="nonzero"/></g><g clip-path="url(#2c0f6d02e9)"><path fill="#000000" d="M 1082.621094 416.546875 L 1059.113281 407.800781 C 1041.285156 401.214844 1024.136719 392.582031 1008.121094 382.359375 C 992.335938 372.136719 977.574219 360.324219 964.175781 346.921875 C 950.886719 333.628906 938.960938 318.863281 928.742188 302.960938 C 918.40625 286.945312 909.890625 269.796875 903.304688 251.960938 L 894.558594 228.449219 C 891.949219 221.292969 885.019531 216.410156 877.183594 216.410156 C 869.460938 216.410156 862.421875 221.292969 859.808594 228.5625 L 851.066406 252.074219 C 844.476562 269.910156 835.847656 287.058594 825.625 303.074219 C 815.40625 318.863281 803.59375 333.628906 790.195312 347.035156 C 776.90625 360.324219 762.144531 372.25 746.246094 382.472656 C 730.234375 392.808594 713.085938 401.328125 695.253906 407.917969 L 671.746094 416.664062 C 664.480469 419.386719 659.597656 426.316406 659.597656 434.039062 C 659.597656 441.765625 664.480469 448.808594 671.746094 451.417969 L 695.253906 460.164062 C 713.085938 466.753906 730.234375 475.386719 746.246094 485.609375 C 762.03125 495.832031 776.792969 507.644531 790.195312 521.046875 C 803.480469 534.335938 815.40625 549.105469 825.625 565.007812 C 835.960938 581.023438 844.476562 598.171875 851.066406 616.007812 L 859.808594 639.519531 C 862.535156 646.789062 869.460938 651.671875 877.183594 651.671875 C 884.90625 651.671875 891.949219 646.789062 894.558594 639.519531 L 903.304688 616.007812 C 909.890625 598.171875 918.519531 581.023438 928.742188 565.007812 C 938.960938 549.21875 950.773438 534.453125 964.175781 521.046875 C 977.460938 507.757812 992.222656 495.832031 1008.125 485.609375 C 1024.136719 475.273438 1041.285156 466.753906 1059.113281 460.164062 L 1082.621094 451.417969 C 1089.890625 448.695312 1094.773438 441.765625 1094.773438 434.039062 C 1094.773438 426.316406 1089.890625 419.273438 1082.621094 416.546875 Z M 985.523438 434.042969 C 983.027344 435.632812 980.414062 437.109375 977.914062 438.8125 C 958.722656 451.078125 940.894531 465.503906 924.765625 481.632812 C 908.640625 497.761719 894.21875 515.597656 881.953125 534.792969 C 880.363281 537.289062 878.773438 539.789062 877.183594 542.402344 C 875.59375 539.902344 874.117188 537.289062 872.414062 534.792969 C 860.148438 515.597656 845.726562 497.761719 829.601562 481.632812 C 813.476562 465.503906 795.644531 451.078125 776.453125 438.8125 C 773.953125 437.222656 771.457031 435.632812 768.84375 434.039062 C 771.34375 432.449219 773.953125 430.972656 776.453125 429.269531 C 795.644531 417.003906 813.476562 402.578125 829.601562 386.449219 C 845.726562 370.320312 860.148438 352.484375 872.414062 333.289062 C 874.003906 330.792969 875.59375 328.292969 877.183594 325.679688 C 878.773438 328.179688 880.25 330.792969 881.953125 333.289062 C 894.21875 352.484375 908.640625 370.320312 924.765625 386.449219 C 940.894531 402.578125 958.722656 417.003906 977.914062 429.269531 C 980.414062 430.859375 982.910156 432.449219 985.523438 434.042969 Z M 985.523438 434.042969 " fill-opacity="1" fill-rule="nonzero"/></g></svg>