<svg xmlns="http://www.w3.org/2000/svg" xmlns:xlink="http://www.w3.org/1999/xlink" width="2000" zoomAndPan="magnify" viewBox="0 0 1500 1499.999933" height="2000" preserveAspectRatio="xMidYMid meet" version="1.0"><rect x="-150" width="1800" fill="#ffffff" y="-149.999993" height="1799.99992" fill-opacity="1"/><rect x="-150" width="1800" fill="#ffffff" y="-149.999993" height="1799.99992" fill-opacity="1"/><path fill="#000000" d="M 1382.640625 682.816406 L 1157.71875 341.230469 C 1153.273438 334.484375 1144.070312 332.863281 1137.585938 337.683594 L 1086.898438 375.402344 C 1080.917969 379.851562 1079.453125 388.195312 1083.554688 394.414062 L 1309.546875 737.164062 C 1314.070312 744.023438 1323.484375 745.558594 1329.953125 740.492188 L 1379.570312 701.613281 C 1385.328125 697.101562 1386.664062 688.925781 1382.640625 682.816406 Z M 1382.640625 682.816406 " fill-opacity="1" fill-rule="nonzero"/><path fill="#000000" d="M 905.015625 447.238281 C 903.8125 446.835938 841.242188 422.183594 784.835938 441.746094 C 727.089844 461.574219 689.84375 471.621094 662.78125 478.992188 C 629.417969 487.96875 612.671875 492.390625 592.039062 506.324219 C 574.085938 518.246094 562.027344 537.40625 546.617188 561.523438 C 534.023438 581.488281 519.6875 603.996094 498.519531 628.515625 C 501.46875 630.925781 506.023438 634.140625 512.320312 637.355469 C 548.894531 656.515625 595.253906 651.960938 630.625 626.101562 C 644.960938 615.515625 659.5625 602.386719 674.035156 586.980469 C 678.054688 581.621094 699.625 555.628906 731.644531 565.945312 C 743.4375 569.832031 769.027344 570.5 801.851562 567.6875 C 814.445312 566.613281 827.308594 569.832031 838.027344 576.796875 L 1145.914062 779.109375 C 1152.882812 783.664062 1159.179688 788.886719 1164.804688 794.515625 C 1209.6875 782.1875 1255.109375 742.53125 1272.257812 726.320312 L 1090.578125 450.722656 C 1063.113281 457.285156 978.304688 473.5 905.015625 447.238281 Z M 905.015625 447.238281 " fill-opacity="1" fill-rule="nonzero"/><path fill="#000000" d="M 653 1017.726562 C 640.40625 1017.726562 627.945312 1023.355469 619.503906 1033.9375 L 574.753906 1092.222656 C 559.75 1111.914062 564.707031 1140.585938 586.144531 1153.984375 C 604.898438 1165.640625 629.820312 1159.746094 643.21875 1142.328125 L 685.421875 1087.53125 C 699.492188 1069.175781 697.882812 1042.113281 679.929688 1027.375 C 672.023438 1020.808594 662.511719 1017.726562 653 1017.726562 Z M 653 1017.726562 " fill-opacity="1" fill-rule="nonzero"/><path fill="#000000" d="M 599.808594 1018.398438 L 620.175781 992.003906 C 626.738281 983.429688 631.027344 972.976562 630.890625 962.257812 C 630.890625 947.523438 624.191406 934.125 612.804688 925.414062 C 604.632812 919.117188 594.71875 915.769531 584.535156 915.769531 C 582.523438 915.769531 580.515625 915.902344 578.371094 916.171875 C 566.179688 917.777344 555.195312 924.074219 547.691406 933.855469 L 464.085938 1042.378906 C 456.585938 1052.160156 453.367188 1064.351562 454.976562 1076.679688 C 456.585938 1089.003906 462.878906 1099.859375 472.660156 1107.496094 C 484.050781 1116.203125 498.789062 1119.285156 512.988281 1115.535156 C 523.441406 1112.851562 532.417969 1106.019531 538.980469 1097.445312 L 554.523438 1077.214844 C 554.65625 1077.082031 554.792969 1076.8125 554.925781 1076.679688 L 599.40625 1018.796875 C 599.542969 1018.664062 599.675781 1018.53125 599.808594 1018.398438 Z M 599.808594 1018.398438 " fill-opacity="1" fill-rule="nonzero"/><path fill="#000000" d="M 527.726562 918.449219 L 539.652344 903.039062 C 555.195312 882.808594 553.316406 853.332031 533.621094 837.121094 C 525.046875 830.019531 514.597656 826.535156 504.148438 826.535156 C 490.210938 826.535156 476.414062 832.699219 467.300781 844.625 L 365.609375 976.863281 C 351.007812 995.886719 352.210938 1026.035156 370.300781 1041.84375 C 383.296875 1053.367188 401.382812 1056.714844 418.265625 1050.152344 C 426.304688 1047.070312 433.136719 1041.308594 438.496094 1034.476562 L 444.257812 1027.105469 L 444.257812 1026.972656 L 527.726562 918.582031 Z M 527.726562 918.449219 " fill-opacity="1" fill-rule="nonzero"/><path fill="#000000" d="M 422.285156 861.773438 C 428.851562 853.199219 433.136719 842.75 433.136719 832.03125 C 433.003906 817.292969 426.304688 803.894531 414.914062 795.1875 C 406.742188 788.886719 396.828125 785.539062 386.644531 785.539062 C 384.902344 785.539062 383.027344 785.671875 381.152344 785.808594 C 368.023438 787.414062 356.5 794.917969 348.460938 805.367188 C 334.394531 823.589844 304.113281 862.847656 286.160156 886.292969 C 271.558594 905.316406 272.894531 935.328125 290.851562 951.140625 C 303.980469 962.660156 321.933594 966.011719 338.816406 959.578125 C 346.855469 956.5 353.6875 950.871094 359.046875 944.039062 C 372.578125 926.351562 408.082031 880.261719 422.285156 861.773438 Z M 422.285156 861.773438 " fill-opacity="1" fill-rule="nonzero"/><path fill="#000000" d="M 1132.113281 800.007812 L 824.226562 597.832031 C 818.199219 593.945312 810.960938 592.070312 803.996094 592.742188 C 778.136719 594.882812 743.167969 596.222656 723.875 589.925781 C 706.589844 584.300781 694.132812 601.984375 693.996094 602.121094 C 693.730469 602.65625 693.328125 603.191406 692.925781 603.59375 C 677.25 620.339844 661.304688 634.675781 645.496094 646.332031 C 602.488281 677.953125 545.679688 683.175781 500.664062 659.730469 C 491.953125 655.175781 484.585938 650.085938 478.824219 644.726562 C 470.117188 636.550781 469.578125 623.289062 477.484375 614.3125 C 498.519531 590.328125 512.855469 567.820312 525.449219 547.992188 C 540.589844 524.140625 553.851562 503.507812 573.550781 488.636719 C 508.167969 478.992188 441.710938 449.515625 416.792969 437.589844 L 226.003906 726.855469 C 237.660156 745.34375 272.09375 798.132812 301.96875 824.527344 L 328.097656 790.496094 C 351.8125 759.816406 395.890625 751.105469 427.644531 773.210938 C 443.320312 784.199219 453.636719 800.542969 456.984375 819.167969 C 482.175781 797.0625 520.226562 795.050781 547.824219 816.21875 C 562.964844 827.875 572.609375 844.757812 575.15625 863.785156 C 576.363281 873.160156 575.691406 882.539062 573.28125 891.515625 C 573.949219 891.382812 574.621094 891.25 575.15625 891.25 C 594.179688 888.703125 612.9375 893.796875 628.078125 905.453125 C 643.21875 917.109375 653 933.988281 655.410156 952.878906 C 657.285156 966.679688 655.007812 980.480469 649.25 992.671875 C 670.953125 991.46875 693.328125 1000.445312 708.332031 1021.210938 C 725.886719 1045.195312 724.277344 1078.152344 706.191406 1101.734375 L 705.519531 1102.671875 L 775.992188 1147.421875 C 786.175781 1153.851562 812.4375 1168.054688 836.6875 1162.292969 C 849.011719 1159.34375 858.660156 1151.707031 866.429688 1138.847656 C 872.996094 1127.992188 870.71875 1114.460938 866.164062 1104.414062 C 863.347656 1098.25 858.792969 1093.023438 853.03125 1089.40625 L 738.613281 1016.65625 C 732.851562 1013.039062 731.109375 1005.265625 734.726562 999.371094 C 738.480469 993.476562 746.25 991.734375 752.144531 995.488281 L 879.023438 1076.144531 C 889.207031 1082.574219 915.46875 1096.910156 939.71875 1091.015625 C 952.042969 1088.066406 961.824219 1080.429688 969.460938 1067.566406 C 982.324219 1046.265625 973.078125 1024.695312 968.523438 1016.386719 C 962.359375 1005.269531 952.980469 997.765625 938.914062 988.519531 L 811.632812 905.183594 C 805.738281 901.433594 804.128906 893.660156 808.015625 887.765625 C 811.765625 882.003906 819.539062 880.398438 825.296875 884.148438 L 952.714844 967.484375 L 952.847656 967.484375 L 990.765625 992.40625 C 1010.460938 1006.742188 1031.09375 1012.769531 1047.839844 1009.421875 C 1061.238281 1006.742188 1072.359375 998.03125 1081.066406 983.695312 C 1089.910156 968.957031 1089.375 952.480469 1079.59375 934.792969 C 1073.164062 923.136719 1063.113281 912.417969 1050.386719 904.113281 C 1049.984375 903.84375 1049.851562 903.574219 1049.582031 903.308594 L 862.679688 781.117188 C 856.917969 777.367188 855.308594 769.460938 859.0625 763.699219 C 862.945312 757.9375 870.71875 756.332031 876.480469 760.082031 L 1072.492188 888.300781 C 1092.1875 902.773438 1112.820312 908.800781 1129.703125 905.316406 C 1143.101562 902.636719 1154.21875 894.0625 1162.796875 879.59375 C 1171.640625 864.855469 1171.238281 848.511719 1161.457031 830.691406 C 1155.023438 819.035156 1144.84375 808.449219 1132.113281 800.007812 Z M 1132.113281 800.007812 " fill-opacity="1" fill-rule="nonzero"/><path fill="#000000" d="M 412.667969 374.917969 L 365.125 336.898438 C 358.683594 331.75 349.21875 333.222656 344.648438 340.082031 L 116.132812 682.917969 C 112.054688 689.035156 113.378906 697.261719 119.171875 701.789062 L 168.710938 740.515625 C 175.179688 745.570312 184.585938 744.03125 189.105469 737.179688 L 415.625 393.632812 C 419.625 387.570312 418.34375 379.453125 412.667969 374.917969 Z M 412.667969 374.917969 " fill-opacity="1" fill-rule="nonzero"/></svg>